<?xml version="1.0" standalone="no"?>
<!DOCTYPE svg PUBLIC "-//W3C//DTD SVG 20010904//EN"
 "http://www.w3.org/TR/2001/REC-SVG-20010904/DTD/svg10.dtd">
<svg version="1.0" xmlns="http://www.w3.org/2000/svg"
 width="1200.000000pt" height="1200.000000pt" viewBox="0 0 1200.000000 1200.000000"
 preserveAspectRatio="xMidYMid meet">
<metadata>
Created by potrace 1.14, written by Peter Selinger 2001-2017
</metadata>
<g transform="translate(0.000000,1200.000000) scale(0.100000,-0.100000)"
fill="#000000" stroke="none">
<path d="M0 6000 l0 -6000 6000 0 6000 0 0 6000 0 6000 -6000 0 -6000 0 0
-6000z m5980 5096 c680 -94 1279 -360 1842 -818 134 -109 413 -381 543 -528
196 -223 404 -510 545 -753 39 -68 78 -120 103 -140 164 -132 291 -425 343
-792 20 -143 23 -465 5 -600 -61 -460 -223 -781 -446 -886 -91 -43 -163 -55
-243 -40 -103 19 -168 55 -253 140 -120 121 -202 280 -260 508 -49 194 -63
316 -63 553 -1 282 22 450 91 665 46 143 90 234 158 330 l56 77 -75 112 c-172
258 -331 451 -551 672 -564 565 -1171 879 -1872 970 -86 12 -201 17 -353 17
-489 0 -886 -95 -1325 -317 -337 -171 -633 -388 -924 -677 -224 -223 -470
-525 -602 -739 l-30 -49 47 -63 c326 -443 347 -1440 40 -1932 -162 -260 -413
-346 -636 -218 -195 111 -343 409 -407 813 -24 157 -24 528 0 684 57 360 183
641 346 770 20 16 55 61 77 99 280 495 773 1055 1240 1407 387 293 797 503
1217 624 227 65 424 101 702 129 96 10 575 -3 685 -18z m-100 -1061 c520 -79
972 -302 1339 -659 203 -199 354 -404 468 -637 163 -331 237 -651 237 -1019
-1 -371 -73 -684 -234 -1015 -101 -207 -232 -394 -413 -589 l-92 -100 1 -145
c1 -124 6 -168 33 -291 18 -80 49 -233 71 -340 60 -301 89 -377 208 -556 123
-183 296 -310 456 -334 81 -13 398 1 596 26 182 23 377 74 485 128 108 54 159
94 186 149 21 39 21 41 3 55 -56 43 -80 46 -374 53 -245 6 -297 10 -370 28
-246 63 -442 232 -510 441 -35 106 -34 246 2 342 40 107 86 175 188 278 187
189 434 322 767 414 328 91 533 88 796 -10 65 -24 136 -47 158 -50 58 -10 138
-62 181 -119 53 -70 71 -130 66 -223 -4 -92 -32 -156 -93 -217 -115 -115 -273
-124 -502 -29 -152 63 -271 59 -513 -18 -102 -33 -155 -57 -265 -122 l-70 -41
260 -6 c279 -7 332 -15 474 -73 222 -90 390 -259 462 -466 19 -53 23 -86 23
-180 0 -137 -16 -205 -79 -337 -165 -342 -531 -557 -1088 -642 -331 -51 -736
-66 -918 -35 -243 42 -471 167 -676 372 -46 45 -83 77 -83 70 0 -35 76 -271
121 -375 27 -65 54 -127 58 -138 15 -36 156 -218 230 -297 257 -274 573 -379
1044 -348 171 11 370 44 512 85 50 15 178 68 285 120 203 97 278 125 395 150
91 19 262 19 345 -1 59 -14 66 -13 77 1 6 9 114 220 239 468 125 249 228 454
230 456 3 4 352 -208 358 -218 3 -4 -103 -216 -234 -471 -228 -445 -237 -465
-218 -478 10 -8 20 -12 22 -11 1 2 107 209 235 459 128 250 236 459 241 464 9
9 110 -50 110 -65 0 -5 -113 -224 -250 -487 l-250 -479 35 -58 c66 -111 79
-157 79 -290 1 -146 -19 -206 -90 -278 -99 -101 -244 -133 -376 -82 -12 5 -72
-103 -254 -452 -131 -251 -250 -470 -264 -485 -21 -23 -158 -110 -539 -341
l-34 -21 7 106 c3 59 19 196 35 305 l28 198 277 547 c192 378 272 546 259 542
-10 -4 -108 -48 -218 -99 -276 -128 -443 -178 -760 -227 -166 -25 -536 -36
-686 -19 -422 48 -770 206 -1050 478 -132 128 -217 234 -409 508 -74 105 -179
251 -235 325 -131 175 -213 296 -285 426 -42 75 -60 100 -64 87 -14 -50 -36
-413 -40 -693 -6 -340 -15 -465 -47 -633 -51 -274 -172 -518 -343 -691 -163
-165 -337 -258 -586 -312 -68 -15 -128 -19 -300 -19 -256 0 -328 11 -595 92
-221 68 -291 75 -396 43 -103 -31 -178 -71 -238 -127 -47 -44 -53 -55 -72
-128 -11 -44 -23 -116 -26 -160 -5 -77 -4 -82 25 -128 60 -94 67 -216 19 -320
-128 -279 -501 -252 -647 47 -49 100 -64 183 -64 346 1 339 105 647 280 824
187 191 424 295 761 336 97 12 139 10 510 -30 213 -23 396 -26 469 -6 114 30
223 114 277 213 54 101 69 187 70 398 0 167 -3 205 -27 315 -28 136 -137 532
-144 525 -3 -2 -19 -40 -37 -85 -82 -198 -253 -450 -406 -595 -87 -82 -172
-141 -287 -196 -116 -56 -622 -223 -962 -318 -337 -94 -456 -135 -556 -192
-99 -57 -138 -91 -163 -142 l-21 -43 24 -70 c13 -38 36 -98 51 -134 23 -55 27
-75 23 -135 -9 -134 -93 -249 -216 -295 -120 -46 -279 -9 -357 83 -57 66 -141
260 -170 392 -24 105 -16 282 15 375 83 245 264 442 529 575 164 82 306 130
781 264 313 88 709 222 776 262 67 40 141 122 218 241 111 170 169 334 181
511 6 82 -6 262 -20 299 -4 10 -40 -19 -113 -90 -634 -620 -1136 -932 -1596
-993 -110 -14 -208 -6 -341 27 -420 106 -764 370 -825 631 -30 132 -28 372 5
498 62 237 241 412 485 474 l72 18 -68 17 c-38 10 -157 38 -264 62 -122 28
-210 54 -236 69 -49 29 -229 220 -244 259 -22 59 13 77 230 119 98 19 148 22
335 21 207 0 226 -2 320 -27 328 -88 580 -327 631 -597 22 -116 15 -283 -15
-361 -29 -75 -80 -132 -149 -165 -48 -23 -73 -29 -159 -32 -96 -4 -105 -3
-147 22 -98 57 -158 16 -142 -100 13 -98 85 -197 174 -241 53 -26 66 -28 172
-27 602 4 1091 413 1375 1149 36 92 88 262 108 353 5 19 -17 46 -127 155 -402
399 -631 879 -687 1432 -14 144 -7 418 15 559 116 736 587 1385 1253 1724 265
135 539 220 813 251 52 6 109 13 125 15 64 9 426 -4 525 -19z m2235 -9019 c44
-8 168 -31 275 -51 335 -63 510 -59 656 14 l74 37 0 -44 c0 -76 19 -79 120
-17 l86 52 -7 -45 c-8 -56 -47 -92 -159 -151 -143 -75 -199 -86 -415 -85 -177
0 -204 3 -385 38 -107 21 -229 44 -270 52 -41 8 -138 17 -215 20 -162 7 -240
-5 -355 -56 -67 -30 -75 -31 -108 -18 -64 24 -89 111 -47 159 26 28 151 80
243 100 73 16 114 18 257 14 94 -3 206 -11 250 -19z"/>
<path d="M2287 8521 c-71 -78 -135 -249 -173 -456 -14 -77 -18 -150 -18 -320
0 -231 12 -337 55 -495 41 -149 138 -320 182 -320 25 0 77 69 118 154 83 175
122 390 121 666 0 269 -42 490 -122 657 -38 77 -96 153 -118 153 -5 0 -26 -18
-45 -39z"/>
<path d="M8688 8528 c-71 -76 -143 -275 -179 -495 -20 -121 -18 -464 5 -598
35 -211 102 -389 177 -468 33 -34 40 -37 59 -27 12 6 39 39 60 72 200 309 223
1018 44 1394 -38 80 -96 154 -121 154 -8 0 -28 -14 -45 -32z"/>
<path d="M4251 7374 c-83 -22 -150 -63 -221 -134 -104 -104 -150 -213 -150
-355 0 -229 147 -423 369 -489 70 -21 202 -21 272 0 129 38 256 140 313 252
75 148 75 327 0 475 -33 64 -142 173 -210 209 -105 56 -257 73 -373 42z m376
-164 c53 -24 83 -70 83 -128 0 -111 -102 -179 -203 -134 -55 24 -79 58 -84
120 -6 64 20 110 77 140 54 27 73 27 127 2z"/>
<path d="M6521 7374 c-141 -38 -255 -133 -323 -271 -40 -81 -42 -89 -46 -196
-4 -101 -2 -120 21 -184 72 -209 258 -343 477 -343 147 0 254 45 361 150 200
197 199 508 -1 711 -100 101 -217 149 -360 148 -41 0 -99 -7 -129 -15z m321
-154 c100 -28 134 -165 60 -243 -75 -79 -208 -46 -243 60 -22 67 17 149 86
179 37 16 50 17 97 4z"/>
<path d="M9866 1902 c-233 -454 -248 -486 -231 -498 23 -17 9 -41 262 456 102
201 201 392 219 425 31 57 32 61 15 81 -16 20 -23 8 -265 -464z"/>
</g>
</svg>
